<?xml version="1.0" encoding="UTF-8" standalone="no"?>
<svg
   viewBox="342.4840 47.1045 364.6178 364.6178"
   width="400"
   height="400"
   preserveAspectRatio="xMidYMid meet"
   version="1.1"
   id="svg11"
   sodipodi:docname="Original_crop copy.svg"
   inkscape:export-filename="Original.png"
   inkscape:export-xdpi="96"
   inkscape:export-ydpi="96"
   inkscape:version="1.4.2 (ebf0e940, 2025-05-08)"
   xmlns:inkscape="http://www.inkscape.org/namespaces/inkscape"
   xmlns:sodipodi="http://sodipodi.sourceforge.net/DTD/sodipodi-0.dtd"
   xmlns="http://www.w3.org/2000/svg"
   xmlns:svg="http://www.w3.org/2000/svg">
  <sodipodi:namedview
     id="namedview11"
     pagecolor="#ffffff"
     bordercolor="#000000"
     borderopacity="0.25"
     inkscape:showpageshadow="2"
     inkscape:pageopacity="0.0"
     inkscape:pagecheckerboard="0"
     inkscape:deskcolor="#d1d1d1"
     inkscape:zoom="1.2793006"
     inkscape:cx="170.79645"
     inkscape:cy="198.93682"
     inkscape:window-width="1664"
     inkscape:window-height="794"
     inkscape:window-x="0"
     inkscape:window-y="25"
     inkscape:window-maximized="0"
     inkscape:current-layer="svg11" />
  <defs
     id="defs1" />
  <style
     id="style1">.agfLQny2SZ0filter-floo {flood-color:#68D065;flood-opacity:0.5;}.aZXroACW-Y0filter-floo {flood-color:#68D065;flood-opacity:0.5;}.companyName {fill:#68D065;fill-opacity:1;}.icon1 {fill:#68D065;fill-opacity:1;}.icon2 {fill:#FBFBFB;fill-opacity:1;}.icon3 {fill:#F3B9E0;fill-opacity:1;}.icon3-str {stroke:#F3B9E0;stroke-opacity:1;}.icon4 {fill:#68D065;fill-opacity:1;}.icon5 {fill:#FBFBFB;fill-opacity:1;}.icon6 {fill:#F3B9E0;fill-opacity:1;}.icon7 {fill:#68D065;fill-opacity:1;}.icon8 {fill:#FBFBFB;fill-opacity:1;}.text {fill:#EBEBEB;fill-opacity:1;}</style>
  <defs
     id="defs2" />
  <g
     id="g1"
     transform="matrix(1.39264,0,0,1.39264,-206.3431,-28.639433)">
    <g
       opacity="1"
       id="g4">
      <svg
         width="99.209"
         height="77.228401"
         x="475.3956"
         y="169.32471"
         version="1.1"
         preserveAspectRatio="none"
         viewBox="8.3200016 14.28 46.849998 36.470001"
         id="svg3">
        <g
           class="icon1"
           id="g3">
          <title
             id="title2">35, idea, smart, insight, concept, brain</title>
          <g
             id="g2">
            <path
               d="M 48.18,41.88 43.52,31 H 55.17 Z M 18.05,42.7 a 0.78,0.78 0 0 0 0,0.3 h -4.12 l 7.22,-10.23 z m -5.73,-0.89 -4,-12 13.55,-1.59 z m 5.49,-25 4.66,9.31 -13.2,1.61 z M 42,27.63 35.84,14.57 46.6,17.64 Z M 40.28,28.7 25.74,26.28 33.82,15 Z M 24.15,25.07 19.53,15.82 31.86,14.28 Z M 40.78,30.81 29.48,42.1 25.41,28.25 Z M 42,32.45 46.48,43 H 31.41 Z M 43.56,29 48.17,19 55.09,29 Z M 19.87,43.44 A 0.5,0.5 0 0 0 20,43.3 l 4,-12.86 4,13.7 v 6.61 z"
               id="path2" />
          </g>
        </g>
      </svg>
    </g>
    <g
       opacity="1"
       id="g11">
      <svg
         width="190.0116"
         height="165.52831"
         x="429.9942"
         y="102.5334"
         version="1.1"
         preserveAspectRatio="none"
         viewBox="21.947001 28.920998 163.00002 142.00003"
         id="svg10">
        <g
           id="g10">
          <g
             id="g9">
            <path
               d="m 154.666,158.653 a 7.176,7.176 0 0 1 -7.18,7.157 H 59.409 a 7.176,7.176 0 0 1 -7.18,-7.157 V 103.276 H 47.1 v 55.377 a 12.3,12.3 0 0 0 12.308,12.268 h 88.077 a 12.3,12.3 0 0 0 12.308,-12.268 v -55.377 h -5.128 z"
               data-color="1"
               class="icon1"
               id="path8" />
            <path
               d="m 103.447,28.921 -81.298,66.151 -0.202,0.164 3.243,3.959 78.257,-63.676 78.258,63.676 3.242,-3.959 z"
               data-color="1"
               class="icon1"
               id="path9" />
          </g>
        </g>
      </svg>
    </g>
  </g>
</svg>
